<svg width="514" height="103" viewBox="0 0 514 103" fill="none" xmlns="http://www.w3.org/2000/svg">
<path d="M105.921 19.6636C105.921 30.5236 97.1857 39.3273 86.4096 39.3273C75.6335 39.3273 66.8978 30.5236 66.8978 19.6636C66.8978 8.80371 75.6335 0 86.4096 0C97.1857 0 105.921 8.80371 105.921 19.6636Z" fill="white"/>
<path d="M53.8619 35.1171C52.0865 30.9823 51.1025 26.422 51.1025 21.63C51.1025 13.4129 53.9958 5.87681 58.8118 0H35.3072C15.8076 0 0 15.9305 0 35.5818V67.4182C0 74.6065 2.1151 81.2969 5.75233 86.8918L53.8619 35.1171Z" fill="white"/>
<path d="M17.7016 98.2677C22.8839 101.278 28.896 103 35.3072 103H66.8978C86.3974 103 102.205 87.0695 102.205 67.4182V50.7687C97.1303 53.8485 91.1855 55.62 84.8301 55.62C76.9874 55.62 69.7699 52.9223 64.0414 48.3975L17.7016 98.2677Z" fill="white"/>
<path d="M122.731 59.9273V16.6766H139.149C142.106 16.6766 144.718 17.1991 146.984 18.2441C149.288 19.2891 151.093 20.8372 152.399 22.8885C153.704 24.9397 154.357 27.4748 154.357 30.4936C154.357 33.435 153.685 35.9507 152.341 38.0407C150.997 40.092 149.192 41.6401 146.926 42.6851L156.719 59.9273H146.696L136.096 40.8273L141.857 44.2525H131.66V59.9273H122.731ZM131.66 36.4152H139.207C140.474 36.4152 141.569 36.1636 142.49 35.6605C143.412 35.1573 144.123 34.4607 144.622 33.5705C145.16 32.6803 145.428 31.6547 145.428 30.4936C145.428 29.2938 145.16 28.2488 144.622 27.3587C144.123 26.4685 143.412 25.7718 142.49 25.2687C141.569 24.7656 140.474 24.514 139.207 24.514H131.66V36.4152Z" fill="white"/>
<path d="M171.812 60.6239C169.277 60.6239 167.107 60.0821 165.302 58.9984C163.535 57.876 162.191 56.3279 161.27 54.354C160.348 52.3802 159.887 50.0774 159.887 47.4455V28.2295H168.528V46.7489C168.528 47.9487 168.758 49.013 169.219 49.9419C169.719 50.8321 170.41 51.5287 171.293 52.0319C172.176 52.535 173.175 52.7866 174.289 52.7866C175.441 52.7866 176.439 52.535 177.284 52.0319C178.168 51.5287 178.84 50.8321 179.3 49.9419C179.8 49.013 180.049 47.9487 180.049 46.7489V28.2295H188.69V59.9273H180.625V53.6574L181.086 55.0507C180.357 56.9471 179.166 58.3598 177.515 59.2887C175.902 60.1788 174.001 60.6239 171.812 60.6239Z" fill="white"/>
<path d="M195.006 59.9273V28.2295H203.071V35.9507L202.207 34.6735C202.668 32.2353 203.781 30.4356 205.548 29.2745C207.314 28.1134 209.427 27.5328 211.885 27.5328C214.496 27.5328 216.781 28.2101 218.74 29.5647C220.737 30.8806 221.985 32.661 222.484 34.9058L220.007 35.138C221.044 32.5449 222.523 30.6291 224.443 29.3906C226.363 28.1521 228.61 27.5328 231.183 27.5328C233.449 27.5328 235.446 28.036 237.174 29.0423C238.94 30.0485 240.323 31.4612 241.321 33.2802C242.32 35.0606 242.819 37.1505 242.819 39.5501V59.9273H234.178V41.4079C234.178 40.1694 233.948 39.105 233.487 38.2149C233.064 37.3247 232.45 36.628 231.644 36.1249C230.837 35.6218 229.858 35.3702 228.706 35.3702C227.592 35.3702 226.613 35.6218 225.768 36.1249C224.961 36.628 224.328 37.3247 223.867 38.2149C223.444 39.105 223.233 40.1694 223.233 41.4079V59.9273H214.592V41.4079C214.592 40.1694 214.362 39.105 213.901 38.2149C213.478 37.3247 212.864 36.628 212.057 36.1249C211.251 35.6218 210.272 35.3702 209.119 35.3702C208.006 35.3702 207.026 35.6218 206.181 36.1249C205.375 36.628 204.741 37.3247 204.28 38.2149C203.858 39.105 203.647 40.1694 203.647 41.4079V59.9273H195.006Z" fill="white"/>
<path d="M258.241 60.6239C255.975 60.6239 254.017 60.2562 252.365 59.5209C250.714 58.7855 249.446 57.7406 248.563 56.3859C247.68 54.9926 247.238 53.3478 247.238 51.4513C247.238 49.671 247.641 48.1035 248.448 46.7489C249.254 45.3556 250.483 44.1945 252.135 43.2656C253.825 42.3367 255.918 41.6788 258.414 41.2918L268.034 39.7243V46.1103L259.969 47.5617C258.74 47.7939 257.799 48.2003 257.147 48.7808C256.494 49.3226 256.167 50.1161 256.167 51.161C256.167 52.1286 256.532 52.8833 257.262 53.4252C257.991 53.967 258.894 54.2379 259.969 54.2379C261.39 54.2379 262.638 53.9283 263.714 53.3091C264.789 52.6898 265.615 51.8577 266.191 50.8127C266.805 49.729 267.112 48.5486 267.112 47.2714V39.0276C267.112 37.8278 266.632 36.8216 265.672 36.0088C264.751 35.196 263.483 34.7897 261.87 34.7897C260.334 34.7897 258.971 35.2154 257.78 36.0669C256.628 36.9183 255.783 38.0407 255.246 39.434L248.333 36.1249C248.947 34.3446 249.926 32.8158 251.271 31.5386C252.615 30.2614 254.228 29.2745 256.11 28.5778C257.991 27.8812 260.046 27.5328 262.273 27.5328C264.923 27.5328 267.266 28.0166 269.301 28.9842C271.337 29.9518 272.911 31.3064 274.025 33.048C275.177 34.7509 275.753 36.7442 275.753 39.0276V59.9273H267.689V54.8185L269.647 54.4701C268.725 55.8635 267.708 57.0245 266.594 57.9534C265.48 58.8436 264.232 59.5015 262.85 59.9273C261.467 60.3917 259.931 60.6239 258.241 60.6239Z" fill="white"/>
<path d="M282.091 59.9273V15.98H290.732V34.4994L289.695 33.1061C290.424 31.2096 291.596 29.8163 293.209 28.9261C294.86 27.9973 296.78 27.5328 298.969 27.5328C301.35 27.5328 303.424 28.036 305.191 29.0423C306.996 30.0485 308.397 31.4612 309.396 33.2802C310.395 35.0606 310.894 37.1505 310.894 39.5501V59.9273H302.253V41.4079C302.253 40.1694 302.003 39.105 301.504 38.2149C301.043 37.3247 300.371 36.628 299.488 36.1249C298.643 35.6218 297.644 35.3702 296.492 35.3702C295.378 35.3702 294.38 35.6218 293.497 36.1249C292.613 36.628 291.922 37.3247 291.423 38.2149C290.962 39.105 290.732 40.1694 290.732 41.4079V59.9273H282.091Z" fill="white"/>
<path d="M347.953 60.6239C344.881 60.6239 342.02 60.0627 339.37 58.9403C336.758 57.818 334.473 56.2505 332.515 54.2379C330.556 52.2254 329.02 49.8645 327.906 47.1553C326.831 44.4461 326.293 41.4853 326.293 38.2729C326.293 35.0606 326.831 32.0998 327.906 29.3906C328.981 26.6427 330.498 24.2818 332.457 22.3079C334.416 20.2954 336.701 18.7472 339.312 17.6636C341.962 16.5412 344.842 15.98 347.953 15.98C351.064 15.98 353.848 16.5025 356.306 17.5475C358.802 18.5924 360.915 19.9857 362.643 21.7274C364.371 23.469 365.6 25.4042 366.33 27.5328L358.438 31.3644C357.708 29.2745 356.421 27.5522 354.578 26.1976C352.773 24.8043 350.565 24.1076 347.953 24.1076C345.418 24.1076 343.191 24.7075 341.271 25.9073C339.351 27.1071 337.853 28.7713 336.777 30.9C335.741 32.99 335.222 35.4476 335.222 38.2729C335.222 41.0982 335.741 43.5752 336.777 45.7039C337.853 47.8326 339.351 49.4968 341.271 50.6966C343.191 51.8964 345.418 52.4963 347.953 52.4963C350.565 52.4963 352.773 51.819 354.578 50.4644C356.421 49.0711 357.708 47.3294 358.438 45.2395L366.33 49.0711C365.6 51.1997 364.371 53.1349 362.643 54.8765C360.915 56.6182 358.802 58.0115 356.306 59.0565C353.848 60.1014 351.064 60.6239 347.953 60.6239Z" fill="white"/>
<path d="M386.013 60.6239C382.672 60.6239 379.773 59.8886 377.315 58.4179C374.857 56.9084 372.956 54.8959 371.612 52.3802C370.268 49.8645 369.596 47.0779 369.596 44.0203C369.596 40.8467 370.287 38.0214 371.669 35.5444C373.09 33.0674 374.991 31.1129 377.372 29.6809C379.754 28.2488 382.442 27.5328 385.437 27.5328C387.934 27.5328 390.142 27.9392 392.062 28.752C393.982 29.526 395.595 30.6291 396.901 32.0611C398.245 33.4931 399.263 35.1573 399.954 37.0538C400.645 38.9115 400.991 40.9434 400.991 43.1495C400.991 43.7688 400.953 44.388 400.876 45.0073C400.837 45.5878 400.741 46.0909 400.588 46.5167H377.027V40.1307H395.691L391.601 43.1495C391.985 41.4853 391.966 40.0146 391.544 38.7374C391.121 37.4215 390.372 36.3958 389.297 35.6605C388.26 34.8864 386.974 34.4994 385.437 34.4994C383.94 34.4994 382.653 34.8671 381.578 35.6024C380.502 36.3378 379.696 37.4215 379.158 38.8535C378.621 40.2855 378.409 42.0271 378.525 44.0784C378.371 45.8587 378.582 47.4262 379.158 48.7808C379.734 50.1354 380.618 51.1997 381.808 51.9738C382.999 52.7092 384.439 53.0768 386.129 53.0768C387.665 53.0768 388.971 52.7672 390.046 52.148C391.16 51.5287 392.024 50.6772 392.638 49.5936L399.551 52.9027C398.936 54.4508 397.957 55.8054 396.613 56.9665C395.307 58.1276 393.752 59.0371 391.947 59.6951C390.142 60.3143 388.164 60.6239 386.013 60.6239Z" fill="white"/>
<path d="M406.079 59.9273V28.2295H414.144V35.8346L413.568 34.7316C414.259 32.0611 415.392 30.2614 416.967 29.3325C418.58 28.365 420.481 27.8812 422.67 27.8812H424.513V35.4283H421.806C419.694 35.4283 417.985 36.0862 416.679 37.4021C415.373 38.6793 414.72 40.4984 414.72 42.8592V59.9273H406.079Z" fill="white"/>
<path d="M428.301 59.9273V28.2295H436.942V59.9273H428.301ZM428.301 25.3848V16.6766H436.942V25.3848H428.301Z" fill="white"/>
<path d="M458.415 60.2756C454.613 60.2756 451.656 59.25 449.544 57.1987C447.47 55.1087 446.433 52.206 446.433 48.4905V35.7766H441.133V28.2295H441.421C443.034 28.2295 444.263 27.8231 445.108 27.0103C445.991 26.1976 446.433 24.9784 446.433 23.3529V21.0307H455.074V28.2295H462.448V35.7766H455.074V47.91C455.074 48.9937 455.266 49.9032 455.65 50.6385C456.034 51.3352 456.629 51.8577 457.436 52.206C458.242 52.5543 459.241 52.7285 460.431 52.7285C460.7 52.7285 461.008 52.7092 461.353 52.6705C461.699 52.6318 462.064 52.593 462.448 52.5543V59.9273C461.872 60.0047 461.219 60.0821 460.489 60.1595C459.759 60.2369 459.068 60.2756 458.415 60.2756Z" fill="white"/>
<path d="M477.247 60.6239C474.981 60.6239 473.022 60.2562 471.371 59.5209C469.719 58.7855 468.452 57.7406 467.569 56.3859C466.685 54.9926 466.244 53.3478 466.244 51.4513C466.244 49.671 466.647 48.1035 467.454 46.7489C468.26 45.3556 469.489 44.1945 471.14 43.2656C472.83 42.3367 474.923 41.6788 477.419 41.2918L487.04 39.7243V46.1103L478.975 47.5617C477.746 47.7939 476.805 48.2003 476.152 48.7808C475.499 49.3226 475.173 50.1161 475.173 51.161C475.173 52.1286 475.538 52.8833 476.267 53.4252C476.997 53.967 477.9 54.2379 478.975 54.2379C480.396 54.2379 481.644 53.9283 482.719 53.3091C483.795 52.6898 484.62 51.8577 485.196 50.8127C485.811 49.729 486.118 48.5486 486.118 47.2714V39.0276C486.118 37.8278 485.638 36.8216 484.678 36.0088C483.756 35.196 482.489 34.7897 480.876 34.7897C479.34 34.7897 477.976 35.2154 476.786 36.0669C475.634 36.9183 474.789 38.0407 474.251 39.434L467.338 36.1249C467.953 34.3446 468.932 32.8158 470.276 31.5386C471.62 30.2614 473.233 29.2745 475.115 28.5778C476.997 27.8812 479.052 27.5328 481.279 27.5328C483.929 27.5328 486.272 28.0166 488.307 28.9842C490.343 29.9518 491.917 31.3064 493.031 33.048C494.183 34.7509 494.759 36.7442 494.759 39.0276V59.9273H486.694V54.8185L488.653 54.4701C487.731 55.8635 486.713 57.0245 485.6 57.9534C484.486 58.8436 483.238 59.5015 481.855 59.9273C480.473 60.3917 478.936 60.6239 477.247 60.6239Z" fill="white"/>
<path d="M505.359 59.9273V51.2191H514V59.9273H505.359Z" fill="white"/>
<path d="M120.217 89.8909V77.3343H122.191V84.1435L121.672 83.9413L127.308 77.3343H129.767L124.783 83.2165L124.883 81.8007L129.968 89.8909H127.643L123.997 84.1435L122.191 86.2672V89.8909H120.217Z" fill="white"/>
<path d="M139.808 90.0932C138.938 90.0932 138.141 89.8853 137.416 89.4696C136.702 89.0538 136.134 88.4864 135.71 87.7672C135.286 87.0481 135.075 86.2335 135.075 85.3233C135.075 84.4019 135.286 83.5873 135.71 82.8794C136.134 82.1603 136.702 81.5985 137.416 81.194C138.13 80.7782 138.927 80.5703 139.808 80.5703C140.7 80.5703 141.497 80.7782 142.199 81.194C142.913 81.5985 143.476 82.1603 143.888 82.8794C144.312 83.5873 144.524 84.4019 144.524 85.3233C144.524 86.2447 144.312 87.065 143.888 87.7841C143.465 88.5032 142.896 89.0707 142.182 89.4864C141.469 89.8909 140.677 90.0932 139.808 90.0932ZM139.808 88.3234C140.343 88.3234 140.817 88.1942 141.229 87.9358C141.642 87.6773 141.965 87.3234 142.199 86.8739C142.445 86.4133 142.567 85.8964 142.567 85.3233C142.567 84.7503 142.445 84.239 142.199 83.7896C141.965 83.3401 141.642 82.9862 141.229 82.7277C140.817 82.4693 140.343 82.3401 139.808 82.3401C139.284 82.3401 138.81 82.4693 138.386 82.7277C137.974 82.9862 137.645 83.3401 137.399 83.7896C137.165 84.239 137.048 84.7503 137.048 85.3233C137.048 85.8964 137.165 86.4133 137.399 86.8739C137.645 87.3234 137.974 87.6773 138.386 87.9358C138.81 88.1942 139.284 88.3234 139.808 88.3234Z" fill="white"/>
<path d="M150.885 89.8909V80.7726H152.691V82.5592L152.473 82.3232C152.696 81.7502 153.053 81.3176 153.544 81.0254C154.034 80.722 154.603 80.5703 155.25 80.5703C155.919 80.5703 156.51 80.7164 157.022 81.0086C157.535 81.3007 157.937 81.7052 158.227 82.2221C158.516 82.739 158.661 83.3345 158.661 84.0087V89.8909H156.788V84.5143C156.788 84.0536 156.705 83.666 156.537 83.3513C156.37 83.0255 156.13 82.7783 155.818 82.6097C155.517 82.43 155.172 82.3401 154.781 82.3401C154.391 82.3401 154.04 82.43 153.728 82.6097C153.427 82.7783 153.193 83.0255 153.025 83.3513C152.858 83.6772 152.774 84.0649 152.774 84.5143V89.8909H150.885Z" fill="white"/>
<path d="M168.545 90.0932C167.619 90.0932 166.805 89.8628 166.103 89.4021C165.411 88.9414 164.926 88.3234 164.648 87.5481L166.103 86.8571C166.348 87.374 166.683 87.7841 167.106 88.0875C167.541 88.3909 168.02 88.5425 168.545 88.5425C168.991 88.5425 169.353 88.4414 169.632 88.2392C169.91 88.0369 170.05 87.7616 170.05 87.4133C170.05 87.1886 169.988 87.0088 169.866 86.8739C169.743 86.7279 169.587 86.6099 169.397 86.52C169.219 86.4301 169.035 86.3627 168.846 86.3177L167.424 85.9132C166.644 85.6885 166.058 85.3514 165.668 84.902C165.289 84.4413 165.099 83.9075 165.099 83.3008C165.099 82.7502 165.239 82.2727 165.517 81.8681C165.796 81.4524 166.181 81.1322 166.671 80.9074C167.162 80.6827 167.714 80.5703 168.327 80.5703C169.152 80.5703 169.888 80.7782 170.535 81.194C171.181 81.5985 171.639 82.1659 171.906 82.8963L170.451 83.5873C170.273 83.1491 169.988 82.8008 169.598 82.5423C169.219 82.2839 168.79 82.1547 168.31 82.1547C167.898 82.1547 167.569 82.2558 167.324 82.4581C167.078 82.6491 166.956 82.9019 166.956 83.2165C166.956 83.43 167.011 83.6098 167.123 83.7559C167.234 83.8907 167.379 84.0031 167.558 84.0929C167.736 84.1716 167.92 84.239 168.11 84.2952L169.581 84.7334C170.328 84.9469 170.903 85.284 171.304 85.7447C171.705 86.1941 171.906 86.7335 171.906 87.3627C171.906 87.9021 171.761 88.3796 171.471 88.7954C171.193 89.1999 170.802 89.5201 170.301 89.7561C169.799 89.9808 169.214 90.0932 168.545 90.0932Z" fill="white"/>
<path d="M182.521 90.0932C181.618 90.0932 180.816 89.8853 180.113 89.4696C179.422 89.0426 178.881 88.4695 178.491 87.7504C178.101 87.02 177.906 86.2054 177.906 85.3065C177.906 84.3851 178.101 83.5705 178.491 82.8626C178.892 82.1547 179.427 81.5985 180.096 81.194C180.765 80.7782 181.524 80.5703 182.371 80.5703C183.051 80.5703 183.659 80.6883 184.194 80.9243C184.729 81.1603 185.181 81.4861 185.549 81.9019C185.917 82.3064 186.195 82.7727 186.385 83.3008C186.585 83.8289 186.686 84.3907 186.686 84.9862C186.686 85.1323 186.68 85.284 186.669 85.4413C186.658 85.5986 186.636 85.7447 186.602 85.8795H179.394V84.3626H185.532L184.629 85.0537C184.74 84.5031 184.701 84.0143 184.512 83.5873C184.333 83.1491 184.055 82.8064 183.675 82.5592C183.308 82.3007 182.873 82.1715 182.371 82.1715C181.869 82.1715 181.423 82.3007 181.033 82.5592C180.643 82.8064 180.342 83.1659 180.13 83.6379C179.918 84.0986 179.834 84.6604 179.879 85.3233C179.823 85.9413 179.907 86.4807 180.13 86.9414C180.364 87.4021 180.687 87.7616 181.1 88.0201C181.524 88.2785 182.003 88.4077 182.538 88.4077C183.085 88.4077 183.547 88.2841 183.926 88.0369C184.317 87.7897 184.623 87.4695 184.846 87.0762L186.385 87.8347C186.206 88.2616 185.928 88.6493 185.549 88.9976C185.181 89.3347 184.735 89.6044 184.211 89.8066C183.698 89.9977 183.135 90.0932 182.521 90.0932Z" fill="white"/>
<path d="M193.046 89.8909V77.132H194.936V89.8909H193.046Z" fill="white"/>
<path d="M201.661 89.8909V80.7726H203.551V89.8909H201.661ZM201.661 79.5254V77.3343H203.551V79.5254H201.661Z" fill="white"/>
<path d="M210.276 89.8909V80.7726H212.082V82.5592L211.865 82.3232C212.088 81.7502 212.445 81.3176 212.935 81.0254C213.426 80.722 213.994 80.5703 214.641 80.5703C215.31 80.5703 215.901 80.7164 216.414 81.0086C216.927 81.3007 217.328 81.7052 217.618 82.2221C217.908 82.739 218.053 83.3345 218.053 84.0087V89.8909H216.18V84.5143C216.18 84.0536 216.096 83.666 215.929 83.3513C215.762 83.0255 215.522 82.7783 215.21 82.6097C214.909 82.43 214.563 82.3401 214.173 82.3401C213.783 82.3401 213.431 82.43 213.119 82.6097C212.818 82.7783 212.584 83.0255 212.417 83.3513C212.249 83.6772 212.166 84.0649 212.166 84.5143V89.8909H210.276Z" fill="white"/>
<path d="M228.956 93.5989C228.298 93.5989 227.691 93.4922 227.133 93.2787C226.576 93.0652 226.096 92.7674 225.695 92.3854C225.293 92.0146 224.992 91.5764 224.792 91.0707L226.531 90.346C226.687 90.773 226.971 91.1269 227.384 91.4078C227.808 91.6887 228.326 91.8292 228.939 91.8292C229.419 91.8292 229.848 91.7337 230.227 91.5427C230.606 91.3629 230.907 91.0932 231.13 90.7336C231.353 90.3853 231.465 89.964 231.465 89.4696V87.4133L231.799 87.8009C231.487 88.3852 231.052 88.8291 230.495 89.1325C229.948 89.4358 229.33 89.5875 228.638 89.5875C227.802 89.5875 227.049 89.3909 226.381 88.9976C225.712 88.6043 225.182 88.065 224.792 87.3796C224.413 86.6942 224.223 85.9245 224.223 85.0705C224.223 84.2053 224.413 83.4356 224.792 82.7614C225.182 82.0873 225.706 81.5535 226.364 81.1603C227.022 80.767 227.774 80.5703 228.622 80.5703C229.313 80.5703 229.926 80.722 230.461 81.0254C231.008 81.3176 231.454 81.7445 231.799 82.3064L231.548 82.7783V80.7726H233.338V89.4696C233.338 90.2561 233.148 90.9584 232.769 91.5764C232.401 92.2056 231.888 92.7 231.231 93.0596C230.573 93.4191 229.815 93.5989 228.956 93.5989ZM228.856 87.8178C229.357 87.8178 229.803 87.6998 230.194 87.4639C230.584 87.2167 230.891 86.8908 231.114 86.4863C231.348 86.0705 231.465 85.6042 231.465 85.0874C231.465 84.5705 231.348 84.1042 231.114 83.6884C230.879 83.2727 230.567 82.9468 230.177 82.7109C229.787 82.4637 229.346 82.3401 228.856 82.3401C228.343 82.3401 227.886 82.4637 227.484 82.7109C227.083 82.9468 226.765 83.2727 226.531 83.6884C226.308 84.0929 226.197 84.5593 226.197 85.0874C226.197 85.593 226.308 86.0537 226.531 86.4694C226.765 86.8852 227.083 87.2167 227.484 87.4639C227.886 87.6998 228.343 87.8178 228.856 87.8178Z" fill="white"/>
<path d="M247.689 89.8909V77.3343H249.662V84.1435L249.144 83.9413L254.78 77.3343H257.238L252.255 83.2165L252.355 81.8007L257.439 89.8909H255.114L251.469 84.1435L249.662 86.2672V89.8909H247.689Z" fill="white"/>
<path d="M267.162 90.0932C266.259 90.0932 265.456 89.8853 264.754 89.4696C264.063 89.0426 263.522 88.4695 263.132 87.7504C262.741 87.02 262.546 86.2054 262.546 85.3065C262.546 84.3851 262.741 83.5705 263.132 82.8626C263.533 82.1547 264.068 81.5985 264.737 81.194C265.406 80.7782 266.164 80.5703 267.012 80.5703C267.692 80.5703 268.299 80.6883 268.835 80.9243C269.37 81.1603 269.821 81.4861 270.189 81.9019C270.557 82.3064 270.836 82.7727 271.026 83.3008C271.226 83.8289 271.327 84.3907 271.327 84.9862C271.327 85.1323 271.321 85.284 271.31 85.4413C271.299 85.5986 271.276 85.7447 271.243 85.8795H264.035V84.3626H270.173L269.269 85.0537C269.381 84.5031 269.342 84.0143 269.152 83.5873C268.974 83.1491 268.695 82.8064 268.316 82.5592C267.948 82.3007 267.513 82.1715 267.012 82.1715C266.51 82.1715 266.064 82.3007 265.674 82.5592C265.283 82.8064 264.982 83.1659 264.771 83.6379C264.559 84.0986 264.475 84.6604 264.52 85.3233C264.464 85.9413 264.548 86.4807 264.771 86.9414C265.005 87.4021 265.328 87.7616 265.741 88.0201C266.164 88.2785 266.644 88.4077 267.179 88.4077C267.725 88.4077 268.188 88.2841 268.567 88.0369C268.957 87.7897 269.264 87.4695 269.487 87.0762L271.026 87.8347C270.847 88.2616 270.568 88.6493 270.189 88.9976C269.821 89.3347 269.375 89.6044 268.851 89.8066C268.338 89.9977 267.775 90.0932 267.162 90.0932Z" fill="white"/>
<path d="M281.031 90.0932C280.106 90.0932 279.292 89.8628 278.59 89.4021C277.898 88.9414 277.413 88.3234 277.135 87.5481L278.59 86.8571C278.835 87.374 279.169 87.7841 279.593 88.0875C280.028 88.3909 280.507 88.5425 281.031 88.5425C281.477 88.5425 281.84 88.4414 282.119 88.2392C282.397 88.0369 282.537 87.7616 282.537 87.4133C282.537 87.1886 282.475 87.0088 282.353 86.8739C282.23 86.7279 282.074 86.6099 281.884 86.52C281.706 86.4301 281.522 86.3627 281.332 86.3177L279.911 85.9132C279.13 85.6885 278.545 85.3514 278.155 84.902C277.776 84.4413 277.586 83.9075 277.586 83.3008C277.586 82.7502 277.726 82.2727 278.004 81.8681C278.283 81.4524 278.668 81.1322 279.158 80.9074C279.649 80.6827 280.201 80.5703 280.814 80.5703C281.639 80.5703 282.375 80.7782 283.022 81.194C283.668 81.5985 284.125 82.1659 284.393 82.8963L282.938 83.5873C282.76 83.1491 282.475 82.8008 282.085 82.5423C281.706 82.2839 281.277 82.1547 280.797 82.1547C280.385 82.1547 280.056 82.2558 279.811 82.4581C279.565 82.6491 279.443 82.9019 279.443 83.2165C279.443 83.43 279.498 83.6098 279.61 83.7559C279.721 83.8907 279.866 84.0031 280.045 84.0929C280.223 84.1716 280.407 84.239 280.597 84.2952L282.068 84.7334C282.815 84.9469 283.39 85.284 283.791 85.7447C284.192 86.1941 284.393 86.7335 284.393 87.3627C284.393 87.9021 284.248 88.3796 283.958 88.7954C283.679 89.1999 283.289 89.5201 282.788 89.7561C282.286 89.9808 281.7 90.0932 281.031 90.0932Z" fill="white"/>
<path d="M295.008 90.0932C294.105 90.0932 293.302 89.8853 292.6 89.4696C291.909 89.0426 291.368 88.4695 290.978 87.7504C290.588 87.02 290.392 86.2054 290.392 85.3065C290.392 84.3851 290.588 83.5705 290.978 82.8626C291.379 82.1547 291.914 81.5985 292.583 81.194C293.252 80.7782 294.01 80.5703 294.858 80.5703C295.538 80.5703 296.146 80.6883 296.681 80.9243C297.216 81.1603 297.668 81.4861 298.035 81.9019C298.403 82.3064 298.682 82.7727 298.872 83.3008C299.072 83.8289 299.173 84.3907 299.173 84.9862C299.173 85.1323 299.167 85.284 299.156 85.4413C299.145 85.5986 299.123 85.7447 299.089 85.8795H291.881V84.3626H298.019L297.116 85.0537C297.227 84.5031 297.188 84.0143 296.999 83.5873C296.82 83.1491 296.541 82.8064 296.162 82.5592C295.794 82.3007 295.36 82.1715 294.858 82.1715C294.356 82.1715 293.91 82.3007 293.52 82.5592C293.13 82.8064 292.829 83.1659 292.617 83.6379C292.405 84.0986 292.321 84.6604 292.366 85.3233C292.31 85.9413 292.394 86.4807 292.617 86.9414C292.851 87.4021 293.174 87.7616 293.587 88.0201C294.01 88.2785 294.49 88.4077 295.025 88.4077C295.571 88.4077 296.034 88.2841 296.413 88.0369C296.803 87.7897 297.11 87.4695 297.333 87.0762L298.872 87.8347C298.693 88.2616 298.415 88.6493 298.035 88.9976C297.668 89.3347 297.222 89.6044 296.698 89.8066C296.185 89.9977 295.622 90.0932 295.008 90.0932Z" fill="white"/>
<path d="M305.533 89.8909V77.132H307.423V82.5592L307.122 82.3232C307.345 81.7502 307.701 81.3176 308.192 81.0254C308.682 80.722 309.251 80.5703 309.898 80.5703C310.567 80.5703 311.158 80.7164 311.671 81.0086C312.184 81.3007 312.585 81.7052 312.875 82.2221C313.165 82.739 313.31 83.3289 313.31 83.9918V89.8909H311.436V84.5143C311.436 84.0536 311.347 83.666 311.169 83.3513C311.002 83.0255 310.767 82.7783 310.466 82.6097C310.165 82.43 309.82 82.3401 309.43 82.3401C309.05 82.3401 308.705 82.43 308.393 82.6097C308.092 82.7783 307.852 83.0255 307.673 83.3513C307.506 83.6772 307.423 84.0649 307.423 84.5143V89.8909H305.533Z" fill="white"/>
<path d="M322.557 90.0932C321.944 90.0932 321.403 89.9864 320.935 89.7729C320.478 89.5482 320.121 89.2448 319.865 88.8628C319.608 88.4695 319.48 88.0088 319.48 87.4807C319.48 86.9863 319.586 86.5425 319.798 86.1492C320.021 85.7559 320.361 85.4245 320.818 85.1548C321.275 84.8851 321.849 84.6941 322.54 84.5817L325.685 84.0592V85.5593L322.908 86.0481C322.407 86.138 322.039 86.3009 321.805 86.5369C321.57 86.7616 321.453 87.0537 321.453 87.4133C321.453 87.7616 321.582 88.0481 321.838 88.2729C322.106 88.4864 322.446 88.5931 322.858 88.5931C323.371 88.5931 323.817 88.4807 324.196 88.256C324.586 88.0313 324.887 87.7335 325.099 87.3627C325.311 86.9807 325.417 86.5593 325.417 86.0986V83.7559C325.417 83.3064 325.25 82.9412 324.915 82.6603C324.592 82.3682 324.157 82.2221 323.611 82.2221C323.109 82.2221 322.669 82.3569 322.29 82.6266C321.922 82.885 321.648 83.2221 321.47 83.6379L319.898 82.8457C320.065 82.3963 320.338 82.003 320.717 81.6659C321.097 81.3176 321.537 81.0479 322.039 80.8569C322.552 80.6659 323.092 80.5703 323.661 80.5703C324.375 80.5703 325.005 80.7052 325.551 80.9749C326.108 81.2445 326.538 81.6209 326.839 82.1041C327.151 82.576 327.307 83.1266 327.307 83.7559V89.8909H325.501V88.2392L325.885 88.2897C325.673 88.6605 325.4 88.9808 325.066 89.2504C324.743 89.5201 324.369 89.728 323.945 89.8741C323.533 90.0201 323.07 90.0932 322.557 90.0932Z" fill="white"/>
<path d="M337.782 89.992C336.835 89.992 336.099 89.7224 335.575 89.183C335.051 88.6437 334.789 87.8852 334.789 86.9077V82.4918H333.2V80.7726H333.451C333.875 80.7726 334.203 80.649 334.438 80.4018C334.672 80.1546 334.789 79.8175 334.789 79.3905V78.6826H336.679V80.7726H338.736V82.4918H336.679V86.8234C336.679 87.138 336.729 87.4077 336.829 87.6324C336.93 87.8459 337.091 88.0144 337.314 88.138C337.537 88.2504 337.827 88.3066 338.184 88.3066C338.273 88.3066 338.373 88.301 338.485 88.2897C338.596 88.2785 338.702 88.2673 338.803 88.256V89.8909C338.647 89.9134 338.474 89.9359 338.284 89.9583C338.095 89.9808 337.927 89.992 337.782 89.992Z" fill="white"/>
<path d="M347.79 90.0932C347.177 90.0932 346.636 89.9864 346.168 89.7729C345.711 89.5482 345.354 89.2448 345.098 88.8628C344.841 88.4695 344.713 88.0088 344.713 87.4807C344.713 86.9863 344.819 86.5425 345.031 86.1492C345.254 85.7559 345.594 85.4245 346.051 85.1548C346.508 84.8851 347.082 84.6941 347.773 84.5817L350.918 84.0592V85.5593L348.141 86.0481C347.64 86.138 347.272 86.3009 347.038 86.5369C346.803 86.7616 346.686 87.0537 346.686 87.4133C346.686 87.7616 346.815 88.0481 347.071 88.2729C347.339 88.4864 347.679 88.5931 348.091 88.5931C348.604 88.5931 349.05 88.4807 349.429 88.256C349.819 88.0313 350.12 87.7335 350.332 87.3627C350.544 86.9807 350.65 86.5593 350.65 86.0986V83.7559C350.65 83.3064 350.483 82.9412 350.148 82.6603C349.825 82.3682 349.39 82.2221 348.844 82.2221C348.342 82.2221 347.902 82.3569 347.523 82.6266C347.155 82.885 346.881 83.2221 346.703 83.6379L345.131 82.8457C345.298 82.3963 345.571 82.003 345.95 81.6659C346.33 81.3176 346.77 81.0479 347.272 80.8569C347.785 80.6659 348.325 80.5703 348.894 80.5703C349.608 80.5703 350.238 80.7052 350.784 80.9749C351.341 81.2445 351.771 81.6209 352.072 82.1041C352.384 82.576 352.54 83.1266 352.54 83.7559V89.8909H350.734V88.2392L351.118 88.2897C350.906 88.6605 350.633 88.9808 350.299 89.2504C349.975 89.5201 349.602 89.728 349.178 89.8741C348.766 90.0201 348.303 90.0932 347.79 90.0932Z" fill="white"/>
<path d="M359.265 89.8909V80.7726H361.071V82.5592L360.854 82.3232C361.077 81.7502 361.434 81.3176 361.924 81.0254C362.415 80.722 362.984 80.5703 363.63 80.5703C364.299 80.5703 364.89 80.7164 365.403 81.0086C365.916 81.3007 366.317 81.7052 366.607 82.2221C366.897 82.739 367.042 83.3345 367.042 84.0087V89.8909H365.169V84.5143C365.169 84.0536 365.085 83.666 364.918 83.3513C364.751 83.0255 364.511 82.7783 364.199 82.6097C363.898 82.43 363.552 82.3401 363.162 82.3401C362.772 82.3401 362.421 82.43 362.108 82.6097C361.807 82.7783 361.573 83.0255 361.406 83.3513C361.239 83.6772 361.155 84.0649 361.155 84.5143V89.8909H359.265Z" fill="white"/>
<path d="M381.203 89.8909V77.3343H383.043L387.726 83.8738H386.806L391.405 77.3343H393.245V89.8909H391.288V79.6771L392.024 79.8793L387.325 86.3515H387.124L382.525 79.8793L383.177 79.6771V89.8909H381.203Z" fill="white"/>
<path d="M404.401 90.0932C403.497 90.0932 402.695 89.8853 401.992 89.4696C401.301 89.0426 400.76 88.4695 400.37 87.7504C399.98 87.02 399.785 86.2054 399.785 85.3065C399.785 84.3851 399.98 83.5705 400.37 82.8626C400.771 82.1547 401.307 81.5985 401.976 81.194C402.645 80.7782 403.403 80.5703 404.25 80.5703C404.93 80.5703 405.538 80.6883 406.073 80.9243C406.608 81.1603 407.06 81.4861 407.428 81.9019C407.796 82.3064 408.074 82.7727 408.264 83.3008C408.465 83.8289 408.565 84.3907 408.565 84.9862C408.565 85.1323 408.559 85.284 408.548 85.4413C408.537 85.5986 408.515 85.7447 408.481 85.8795H401.273V84.3626H407.411L406.508 85.0537C406.619 84.5031 406.58 84.0143 406.391 83.5873C406.212 83.1491 405.934 82.8064 405.555 82.5592C405.187 82.3007 404.752 82.1715 404.25 82.1715C403.748 82.1715 403.302 82.3007 402.912 82.5592C402.522 82.8064 402.221 83.1659 402.009 83.6379C401.797 84.0986 401.714 84.6604 401.758 85.3233C401.702 85.9413 401.786 86.4807 402.009 86.9414C402.243 87.4021 402.566 87.7616 402.979 88.0201C403.403 88.2785 403.882 88.4077 404.417 88.4077C404.964 88.4077 405.426 88.2841 405.805 88.0369C406.196 87.7897 406.502 87.4695 406.725 87.0762L408.264 87.8347C408.086 88.2616 407.807 88.6493 407.428 88.9976C407.06 89.3347 406.614 89.6044 406.09 89.8066C405.577 89.9977 405.014 90.0932 404.401 90.0932Z" fill="white"/>
<path d="M414.925 89.8909V80.7726H416.731V82.5592L416.514 82.3232C416.737 81.7502 417.094 81.3176 417.584 81.0254C418.075 80.722 418.643 80.5703 419.29 80.5703C419.959 80.5703 420.55 80.7164 421.063 81.0086C421.576 81.3007 421.977 81.7052 422.267 82.2221C422.557 82.739 422.702 83.3345 422.702 84.0087V89.8909H420.829V84.5143C420.829 84.0536 420.745 83.666 420.578 83.3513C420.411 83.0255 420.171 82.7783 419.859 82.6097C419.558 82.43 419.212 82.3401 418.822 82.3401C418.432 82.3401 418.08 82.43 417.768 82.6097C417.467 82.7783 417.233 83.0255 417.066 83.3513C416.898 83.6772 416.815 84.0649 416.815 84.5143V89.8909H414.925Z" fill="white"/>
<path d="M433.154 89.992C432.206 89.992 431.47 89.7224 430.946 89.183C430.422 88.6437 430.16 87.8852 430.16 86.9077V82.4918H428.571V80.7726H428.822C429.246 80.7726 429.575 80.649 429.809 80.4018C430.043 80.1546 430.16 79.8175 430.16 79.3905V78.6826H432.05V80.7726H434.107V82.4918H432.05V86.8234C432.05 87.138 432.1 87.4077 432.2 87.6324C432.301 87.8459 432.462 88.0144 432.685 88.138C432.908 88.2504 433.198 88.3066 433.555 88.3066C433.644 88.3066 433.745 88.301 433.856 88.2897C433.967 88.2785 434.073 88.2673 434.174 88.256V89.8909C434.018 89.9134 433.845 89.9359 433.655 89.9583C433.466 89.9808 433.299 89.992 433.154 89.992Z" fill="white"/>
<path d="M443.161 90.0932C442.548 90.0932 442.007 89.9864 441.539 89.7729C441.082 89.5482 440.725 89.2448 440.469 88.8628C440.212 88.4695 440.084 88.0088 440.084 87.4807C440.084 86.9863 440.19 86.5425 440.402 86.1492C440.625 85.7559 440.965 85.4245 441.422 85.1548C441.879 84.8851 442.453 84.6941 443.145 84.5817L446.289 84.0592V85.5593L443.513 86.0481C443.011 86.138 442.643 86.3009 442.409 86.5369C442.175 86.7616 442.057 87.0537 442.057 87.4133C442.057 87.7616 442.186 88.0481 442.442 88.2729C442.71 88.4864 443.05 88.5931 443.462 88.5931C443.975 88.5931 444.421 88.4807 444.8 88.256C445.191 88.0313 445.492 87.7335 445.703 87.3627C445.915 86.9807 446.021 86.5593 446.021 86.0986V83.7559C446.021 83.3064 445.854 82.9412 445.519 82.6603C445.196 82.3682 444.761 82.2221 444.215 82.2221C443.713 82.2221 443.273 82.3569 442.894 82.6266C442.526 82.885 442.253 83.2221 442.074 83.6379L440.502 82.8457C440.669 82.3963 440.943 82.003 441.322 81.6659C441.701 81.3176 442.141 81.0479 442.643 80.8569C443.156 80.6659 443.697 80.5703 444.265 80.5703C444.979 80.5703 445.609 80.7052 446.155 80.9749C446.712 81.2445 447.142 81.6209 447.443 82.1041C447.755 82.576 447.911 83.1266 447.911 83.7559V89.8909H446.105V88.2392L446.49 88.2897C446.278 88.6605 446.004 88.9808 445.67 89.2504C445.347 89.5201 444.973 89.728 444.549 89.8741C444.137 90.0201 443.674 90.0932 443.161 90.0932Z" fill="white"/>
<path d="M454.636 89.8909V77.132H456.526V89.8909H454.636Z" fill="white"/>
</svg>
