<svg width="237" height="47" viewBox="0 0 237 47" fill="none" xmlns="http://www.w3.org/2000/svg">
<path d="M48.8393 8.97273C48.8393 13.9282 44.8113 17.9455 39.8426 17.9455C34.8738 17.9455 30.8459 13.9282 30.8459 8.97273C30.8459 4.01723 34.8738 0 39.8426 0C44.8113 0 48.8393 4.01723 48.8393 8.97273Z" fill="#FFA15E"/>
<path d="M24.8352 16.0243C24.0165 14.1376 23.5628 12.0566 23.5628 9.87C23.5628 6.12045 24.8969 2.68165 27.1175 0H16.2798C7.2887 0 0 7.26927 0 16.2364V30.7636C0 34.0437 0.975252 37.0966 2.65234 39.6497L24.8352 16.0243Z" fill="#577CFF"/>
<path d="M8.16201 44.8406C10.5515 46.2142 13.3236 47 16.2798 47H30.8459C39.8369 47 47.1256 39.7307 47.1256 30.7636V23.1663C44.7858 24.5716 42.0447 25.38 39.1143 25.38C35.4981 25.38 32.1702 24.149 29.5288 22.0843L8.16201 44.8406Z" fill="#577CFF"/>
<path d="M56.5902 27.3455V7.60973H64.1602C65.5237 7.60973 66.7279 7.84814 67.7726 8.32498C68.8351 8.80182 69.6674 9.50824 70.2694 10.4443C70.8715 11.3803 71.1725 12.537 71.1725 13.9146C71.1725 15.2568 70.8627 16.4047 70.2429 17.3584C69.6231 18.2944 68.7908 19.0008 67.7461 19.4777L72.2616 27.3455H67.6398L62.7525 18.6299L65.4086 20.1929H60.7072V27.3455H56.5902ZM60.7072 16.6166H64.1868C64.7712 16.6166 65.2758 16.5018 65.7008 16.2723C66.1258 16.0427 66.4534 15.7248 66.6836 15.3186C66.9315 14.9124 67.0555 14.4444 67.0555 13.9146C67.0555 13.3671 66.9315 12.8902 66.6836 12.4841C66.4534 12.0779 66.1258 11.76 65.7008 11.5304C65.2758 11.3008 64.7712 11.186 64.1868 11.186H60.7072V16.6166Z" fill="black"/>
<path d="M79.2205 27.6633C78.0518 27.6633 77.0513 27.4161 76.2191 26.9216C75.4045 26.4094 74.7847 25.703 74.3597 24.8023C73.9348 23.9016 73.7223 22.8508 73.7223 21.6499V12.8814H77.7065V21.332C77.7065 21.8795 77.8128 22.3652 78.0253 22.789C78.2555 23.1952 78.5742 23.5131 78.9815 23.7427C79.3888 23.9723 79.8492 24.0871 80.3627 24.0871C80.8939 24.0871 81.3543 23.9723 81.7439 23.7427C82.1512 23.5131 82.4611 23.1952 82.6736 22.789C82.9038 22.3652 83.0189 21.8795 83.0189 21.332V12.8814H87.0031V27.3455H83.2845V24.4844L83.497 25.1202C83.1605 25.9856 82.6116 26.6302 81.8501 27.0541C81.1064 27.4602 80.2299 27.6633 79.2205 27.6633Z" fill="black"/>
<path d="M89.9152 27.3455V12.8814H93.6338V16.4047L93.2354 15.8219C93.4479 14.7093 93.9614 13.8881 94.7759 13.3583C95.5905 12.8284 96.5644 12.5635 97.6977 12.5635C98.9019 12.5635 99.9555 12.8726 100.859 13.4907C101.779 14.0912 102.355 14.9036 102.585 15.9279L101.443 16.0338C101.921 14.8506 102.603 13.9764 103.488 13.4112C104.374 12.8461 105.409 12.5635 106.596 12.5635C107.641 12.5635 108.561 12.7931 109.358 13.2523C110.173 13.7115 110.81 14.3561 111.271 15.1861C111.731 15.9985 111.961 16.9522 111.961 18.0471V27.3455H107.977V18.8949C107.977 18.3297 107.871 17.844 107.658 17.4379C107.464 17.0317 107.18 16.7138 106.808 16.4842C106.437 16.2546 105.985 16.1398 105.454 16.1398C104.94 16.1398 104.489 16.2546 104.099 16.4842C103.727 16.7138 103.435 17.0317 103.223 17.4379C103.028 17.844 102.93 18.3297 102.93 18.8949V27.3455H98.9461V18.8949C98.9461 18.3297 98.8399 17.844 98.6274 17.4379C98.4326 17.0317 98.1493 16.7138 97.7774 16.4842C97.4055 16.2546 96.954 16.1398 96.4228 16.1398C95.9092 16.1398 95.4577 16.2546 95.0681 16.4842C94.6963 16.7138 94.4041 17.0317 94.1916 17.4379C93.9968 17.844 93.8994 18.3297 93.8994 18.8949V27.3455H89.9152Z" fill="black"/>
<path d="M119.072 27.6633C118.027 27.6633 117.124 27.4956 116.363 27.16C115.602 26.8245 115.017 26.3476 114.61 25.7295C114.203 25.0937 113.999 24.3432 113.999 23.4778C113.999 22.6654 114.185 21.9501 114.557 21.332C114.929 20.6962 115.495 20.1664 116.257 19.7426C117.036 19.3187 118.001 19.0185 119.152 18.8419L123.588 18.1266V21.0406L119.869 21.7029C119.302 21.8089 118.869 21.9943 118.568 22.2592C118.267 22.5064 118.116 22.8685 118.116 23.3453C118.116 23.7868 118.284 24.1312 118.621 24.3785C118.957 24.6257 119.373 24.7493 119.869 24.7493C120.524 24.7493 121.1 24.6081 121.596 24.3255C122.091 24.0429 122.472 23.6632 122.738 23.1864C123.021 22.6919 123.163 22.1532 123.163 21.5704V17.8087C123.163 17.2612 122.941 16.8021 122.499 16.4312C122.074 16.0603 121.489 15.8749 120.746 15.8749C120.037 15.8749 119.409 16.0692 118.86 16.4577C118.329 16.8462 117.939 17.3584 117.691 17.9942L114.504 16.4842C114.787 15.6718 115.238 14.9742 115.858 14.3914C116.478 13.8086 117.222 13.3583 118.089 13.0404C118.957 12.7225 119.904 12.5635 120.932 12.5635C122.153 12.5635 123.234 12.7843 124.172 13.2258C125.111 13.6673 125.837 14.2854 126.35 15.0802C126.881 15.8572 127.147 16.7668 127.147 17.8087V27.3455H123.428V25.0143L124.331 24.8553C123.906 25.4911 123.437 26.0209 122.924 26.4448C122.41 26.851 121.835 27.1512 121.197 27.3455C120.56 27.5574 119.851 27.6633 119.072 27.6633Z" fill="black"/>
<path d="M130.069 27.3455V7.29184H134.053V15.7424L133.575 15.1067C133.912 14.2413 134.452 13.6055 135.195 13.1993C135.957 12.7755 136.842 12.5635 137.852 12.5635C138.949 12.5635 139.906 12.7931 140.72 13.2523C141.553 13.7115 142.199 14.3561 142.659 15.1861C143.12 15.9985 143.35 16.9522 143.35 18.0471V27.3455H139.366V18.8949C139.366 18.3297 139.25 17.844 139.02 17.4379C138.808 17.0317 138.498 16.7138 138.091 16.4842C137.701 16.2546 137.241 16.1398 136.709 16.1398C136.196 16.1398 135.735 16.2546 135.328 16.4842C134.921 16.7138 134.602 17.0317 134.372 17.4379C134.16 17.844 134.053 18.3297 134.053 18.8949V27.3455H130.069Z" fill="black"/>
<path d="M160.438 27.6633C159.021 27.6633 157.702 27.4073 156.48 26.8951C155.276 26.383 154.222 25.6677 153.319 24.7493C152.416 23.831 151.708 22.7537 151.194 21.5175C150.698 20.2812 150.45 18.9302 150.45 17.4643C150.45 15.9985 150.698 14.6475 151.194 13.4112C151.69 12.1573 152.389 11.08 153.292 10.1793C154.196 9.26099 155.249 8.55457 156.453 8.06007C157.675 7.54791 159.003 7.29184 160.438 7.29184C161.872 7.29184 163.156 7.53025 164.289 8.00709C165.44 8.48393 166.414 9.11971 167.211 9.91444C168.008 10.7092 168.574 11.5922 168.911 12.5635L165.272 14.3119C164.935 13.3583 164.342 12.5724 163.492 11.9542C162.66 11.3185 161.642 11.0006 160.438 11.0006C159.269 11.0006 158.242 11.2743 157.356 11.8218C156.471 12.3693 155.78 13.1287 155.285 14.1C154.806 15.0537 154.567 16.1751 154.567 17.4643C154.567 18.7536 154.806 19.8839 155.285 20.8552C155.78 21.8265 156.471 22.5859 157.356 23.1334C158.242 23.6809 159.269 23.9546 160.438 23.9546C161.642 23.9546 162.66 23.6456 163.492 23.0274C164.342 22.3917 164.935 21.5969 165.272 20.6433L168.911 22.3917C168.574 23.363 168.008 24.246 167.211 25.0407C166.414 25.8355 165.44 26.4713 164.289 26.9481C163.156 27.4249 161.872 27.6633 160.438 27.6633Z" fill="black"/>
<path d="M177.987 27.6633C176.446 27.6633 175.109 27.3278 173.976 26.6567C172.843 25.9679 171.966 25.0496 171.346 23.9016C170.727 22.7537 170.417 21.4821 170.417 20.0869C170.417 18.6388 170.735 17.3496 171.373 16.2193C172.028 15.089 172.905 14.1971 174.002 13.5437C175.1 12.8902 176.34 12.5635 177.721 12.5635C178.872 12.5635 179.89 12.749 180.776 13.1198C181.661 13.473 182.405 13.9764 183.007 14.6298C183.627 15.2833 184.096 16.0427 184.415 16.908C184.733 17.7557 184.893 18.6829 184.893 19.6896C184.893 19.9722 184.875 20.2547 184.84 20.5373C184.822 20.8022 184.778 21.0318 184.707 21.2261H173.843V18.3121H182.449L180.563 19.6896C180.74 18.9302 180.731 18.2591 180.537 17.6763C180.342 17.0758 179.997 16.6078 179.501 16.2723C179.023 15.919 178.429 15.7424 177.721 15.7424C177.031 15.7424 176.437 15.9102 175.941 16.2458C175.446 16.5813 175.074 17.0758 174.826 17.7293C174.578 18.3827 174.481 19.1774 174.534 20.1134C174.463 20.9258 174.56 21.6411 174.826 22.2592C175.092 22.8773 175.499 23.363 176.048 23.7162C176.597 24.0518 177.261 24.2195 178.04 24.2195C178.748 24.2195 179.35 24.0782 179.846 23.7957C180.36 23.5131 180.758 23.1246 181.041 22.6301L184.229 24.1401C183.945 24.8465 183.494 25.4646 182.874 25.9944C182.272 26.5242 181.555 26.9393 180.723 27.2395C179.89 27.5221 178.978 27.6633 177.987 27.6633Z" fill="black"/>
<path d="M187.239 27.3455V12.8814H190.958V16.3517L190.692 15.8484C191.011 14.6298 191.533 13.8086 192.259 13.3847C193.003 12.9432 193.879 12.7225 194.889 12.7225H195.739V16.1663H194.49C193.516 16.1663 192.728 16.4665 192.126 17.067C191.524 17.6498 191.223 18.4798 191.223 19.5571V27.3455H187.239Z" fill="black"/>
<path d="M197.485 27.3455V12.8814H201.469V27.3455H197.485ZM197.485 11.5834V7.60973H201.469V11.5834H197.485Z" fill="black"/>
<path d="M211.37 27.5044C209.617 27.5044 208.254 27.0364 207.28 26.1004C206.324 25.1467 205.846 23.8222 205.846 22.1267V16.3252H203.402V12.8814H203.535C204.278 12.8814 204.845 12.696 205.235 12.3251C205.642 11.9542 205.846 11.3979 205.846 10.6562V9.59655H209.83V12.8814H213.23V16.3252H209.83V21.8618C209.83 22.3563 209.918 22.7714 210.095 23.1069C210.273 23.4248 210.547 23.6632 210.919 23.8222C211.291 23.9811 211.751 24.0606 212.3 24.0606C212.424 24.0606 212.566 24.0518 212.725 24.0341C212.884 24.0164 213.053 23.9988 213.23 23.9811V27.3455C212.964 27.3808 212.663 27.4161 212.327 27.4514C211.99 27.4867 211.671 27.5044 211.37 27.5044Z" fill="black"/>
<path d="M220.053 27.6633C219.009 27.6633 218.106 27.4956 217.344 27.16C216.583 26.8245 215.998 26.3476 215.591 25.7295C215.184 25.0937 214.98 24.3432 214.98 23.4778C214.98 22.6654 215.166 21.9501 215.538 21.332C215.91 20.6962 216.476 20.1664 217.238 19.7426C218.017 19.3187 218.982 19.0185 220.133 18.8419L224.569 18.1266V21.0406L220.85 21.7029C220.284 21.8089 219.85 21.9943 219.549 22.2592C219.248 22.5064 219.097 22.8685 219.097 23.3453C219.097 23.7868 219.265 24.1312 219.602 24.3785C219.938 24.6257 220.354 24.7493 220.85 24.7493C221.505 24.7493 222.081 24.6081 222.577 24.3255C223.073 24.0429 223.453 23.6632 223.719 23.1864C224.002 22.6919 224.144 22.1532 224.144 21.5704V17.8087C224.144 17.2612 223.923 16.8021 223.48 16.4312C223.055 16.0603 222.471 15.8749 221.727 15.8749C221.019 15.8749 220.39 16.0692 219.841 16.4577C219.31 16.8462 218.92 17.3584 218.672 17.9942L215.485 16.4842C215.768 15.6718 216.22 14.9742 216.839 14.3914C217.459 13.8086 218.203 13.3583 219.071 13.0404C219.938 12.7225 220.886 12.5635 221.913 12.5635C223.135 12.5635 224.215 12.7843 225.153 13.2258C226.092 13.6673 226.818 14.2854 227.331 15.0802C227.863 15.8572 228.128 16.7668 228.128 17.8087V27.3455H224.41V25.0143L225.313 24.8553C224.888 25.4911 224.418 26.0209 223.905 26.4448C223.391 26.851 222.816 27.1512 222.178 27.3455C221.541 27.5574 220.833 27.6633 220.053 27.6633Z" fill="black"/>
<path d="M233.016 27.3455V23.3718H237V27.3455H233.016Z" fill="black"/>
<path d="M55.4309 41.0182V35.2885H56.3408V38.3956L56.1018 38.3033L58.7005 35.2885H59.8341L57.5361 37.9726L57.5824 37.3265L59.9267 41.0182H58.8548L57.1737 38.3956L56.3408 39.3646V41.0182H55.4309Z" fill="black"/>
<path d="M64.4638 41.1105C64.0628 41.1105 63.6952 41.0156 63.3611 40.8259C63.0321 40.6362 62.7699 40.3773 62.5745 40.0491C62.3792 39.721 62.2815 39.3493 62.2815 38.9339C62.2815 38.5135 62.3792 38.1418 62.5745 37.8188C62.7699 37.4906 63.0321 37.2343 63.3611 37.0497C63.6901 36.86 64.0577 36.7651 64.4638 36.7651C64.8751 36.7651 65.2427 36.86 65.5666 37.0497C65.8956 37.2343 66.1552 37.4906 66.3454 37.8188C66.5408 38.1418 66.6385 38.5135 66.6385 38.9339C66.6385 39.3544 66.5408 39.7287 66.3454 40.0568C66.1501 40.385 65.8879 40.6439 65.5589 40.8336C65.2298 41.0182 64.8648 41.1105 64.4638 41.1105ZM64.4638 40.3029C64.7106 40.3029 64.9291 40.244 65.1193 40.126C65.3095 40.0081 65.4586 39.8466 65.5666 39.6415C65.6797 39.4313 65.7362 39.1954 65.7362 38.9339C65.7362 38.6725 65.6797 38.4392 65.5666 38.2341C65.4586 38.029 65.3095 37.8675 65.1193 37.7495C64.9291 37.6316 64.7106 37.5727 64.4638 37.5727C64.2222 37.5727 64.0037 37.6316 63.8084 37.7495C63.6181 37.8675 63.4665 38.029 63.3534 38.2341C63.2454 38.4392 63.1914 38.6725 63.1914 38.9339C63.1914 39.1954 63.2454 39.4313 63.3534 39.6415C63.4665 39.8466 63.6181 40.0081 63.8084 40.126C64.0037 40.244 64.2222 40.3029 64.4638 40.3029Z" fill="black"/>
<path d="M69.5713 41.0182V36.8574H70.4041V37.6726L70.3039 37.565C70.4067 37.3035 70.5712 37.1061 70.7974 36.9728C71.0236 36.8343 71.2858 36.7651 71.584 36.7651C71.8924 36.7651 72.1649 36.8318 72.4014 36.9651C72.6379 37.0984 72.823 37.283 72.9566 37.5188C73.0903 37.7547 73.1571 38.0264 73.1571 38.3341V41.0182H72.2934V38.5648C72.2934 38.3546 72.2549 38.1777 72.1778 38.0341C72.1006 37.8854 71.9901 37.7726 71.8462 37.6957C71.7074 37.6137 71.548 37.5727 71.3681 37.5727C71.1881 37.5727 71.0262 37.6137 70.8822 37.6957C70.7434 37.7726 70.6355 37.8854 70.5584 38.0341C70.4812 38.1828 70.4427 38.3597 70.4427 38.5648V41.0182H69.5713Z" fill="black"/>
<path d="M77.7141 41.1105C77.2874 41.1105 76.9121 41.0054 76.5882 40.7951C76.2695 40.5849 76.0459 40.3029 75.9173 39.9491L76.5882 39.6338C76.7013 39.8697 76.8556 40.0568 77.0509 40.1953C77.2514 40.3337 77.4725 40.4029 77.7141 40.4029C77.9197 40.4029 78.0868 40.3568 78.2154 40.2645C78.3439 40.1722 78.4081 40.0466 78.4081 39.8876C78.4081 39.7851 78.3799 39.703 78.3233 39.6415C78.2668 39.5749 78.1948 39.521 78.1074 39.48C78.0251 39.439 77.9403 39.4082 77.8529 39.3877L77.1974 39.2031C76.8376 39.1006 76.5677 38.9468 76.3877 38.7417C76.2129 38.5315 76.1255 38.2879 76.1255 38.011C76.1255 37.7598 76.1898 37.5419 76.3183 37.3573C76.4469 37.1676 76.6242 37.0215 76.8504 36.9189C77.0766 36.8164 77.3311 36.7651 77.6139 36.7651C77.9943 36.7651 78.3336 36.86 78.6318 37.0497C78.93 37.2343 79.1407 37.4932 79.2641 37.8265L78.5932 38.1418C78.511 37.9418 78.3799 37.7829 78.1999 37.6649C78.0251 37.547 77.8272 37.4881 77.6061 37.4881C77.4159 37.4881 77.2643 37.5342 77.1512 37.6265C77.0381 37.7137 76.9815 37.829 76.9815 37.9726C76.9815 38.07 77.0072 38.152 77.0586 38.2187C77.11 38.2802 77.1769 38.3315 77.2591 38.3725C77.3414 38.4084 77.4262 38.4392 77.5136 38.4648L78.1922 38.6648C78.5367 38.7622 78.8014 38.916 78.9865 39.1262C79.1716 39.3313 79.2641 39.5774 79.2641 39.8645C79.2641 40.1107 79.1973 40.3286 79.0636 40.5183C78.9351 40.7029 78.7552 40.849 78.5238 40.9567C78.2925 41.0592 78.0226 41.1105 77.7141 41.1105Z" fill="black"/>
<path d="M84.1587 41.1105C83.7423 41.1105 83.3722 41.0156 83.0483 40.8259C82.7295 40.6311 82.4802 40.3696 82.3003 40.0414C82.1203 39.7082 82.0304 39.3364 82.0304 38.9263C82.0304 38.5058 82.1203 38.1341 82.3003 37.8111C82.4853 37.4881 82.7321 37.2343 83.0406 37.0497C83.349 36.86 83.6986 36.7651 84.0893 36.7651C84.4029 36.7651 84.6831 36.8189 84.9299 36.9266C85.1766 37.0343 85.3848 37.183 85.5545 37.3727C85.7242 37.5573 85.8527 37.7701 85.9401 38.011C86.0326 38.252 86.0789 38.5084 86.0789 38.7801C86.0789 38.8468 86.0763 38.916 86.0712 38.9878C86.066 39.0596 86.0557 39.1262 86.0403 39.1877H82.7167V38.4956H85.5468L85.1304 38.8109C85.1818 38.5597 85.1638 38.3366 85.0764 38.1418C84.9941 37.9418 84.8656 37.7854 84.6908 37.6726C84.5212 37.5547 84.3207 37.4957 84.0893 37.4957C83.858 37.4957 83.6523 37.5547 83.4724 37.6726C83.2925 37.7854 83.1537 37.9495 83.056 38.1649C82.9583 38.3751 82.9198 38.6314 82.9403 38.9339C82.9146 39.2159 82.9532 39.4621 83.056 39.6723C83.1639 39.8825 83.313 40.0466 83.5033 40.1645C83.6986 40.2824 83.9197 40.3414 84.1664 40.3414C84.4184 40.3414 84.6317 40.285 84.8065 40.1722C84.9864 40.0594 85.1278 39.9133 85.2306 39.7338L85.9401 40.0799C85.8578 40.2747 85.7293 40.4516 85.5545 40.6106C85.3848 40.7644 85.1792 40.8874 84.9376 40.9797C84.7011 41.0669 84.4415 41.1105 84.1587 41.1105Z" fill="black"/>
<path d="M89.0114 41.0182V35.1962H89.8828V41.0182H89.0114Z" fill="black"/>
<path d="M92.9837 41.0182V36.8574H93.8551V41.0182H92.9837ZM92.9837 36.2883V35.2885H93.8551V36.2883H92.9837Z" fill="black"/>
<path d="M96.956 41.0182V36.8574H97.7889V37.6726L97.6886 37.565C97.7914 37.3035 97.9559 37.1061 98.1822 36.9728C98.4084 36.8343 98.6705 36.7651 98.9687 36.7651C99.2772 36.7651 99.5497 36.8318 99.7861 36.9651C100.023 37.0984 100.208 37.283 100.341 37.5188C100.475 37.7547 100.542 38.0264 100.542 38.3341V41.0182H99.6782V38.5648C99.6782 38.3546 99.6396 38.1777 99.5625 38.0341C99.4854 37.8854 99.3749 37.7726 99.2309 37.6957C99.0921 37.6137 98.9327 37.5727 98.7528 37.5727C98.5729 37.5727 98.4109 37.6137 98.267 37.6957C98.1282 37.7726 98.0202 37.8854 97.9431 38.0341C97.866 38.1828 97.8274 38.3597 97.8274 38.5648V41.0182H96.956Z" fill="black"/>
<path d="M105.569 42.7102C105.266 42.7102 104.986 42.6615 104.729 42.5641C104.472 42.4666 104.251 42.3308 104.066 42.1564C103.88 41.9872 103.742 41.7873 103.649 41.5565L104.451 41.2258C104.523 41.4207 104.654 41.5822 104.844 41.7104C105.04 41.8385 105.279 41.9026 105.562 41.9026C105.783 41.9026 105.981 41.8591 106.155 41.7719C106.33 41.6899 106.469 41.5668 106.572 41.4027C106.675 41.2438 106.726 41.0515 106.726 40.8259V39.8876L106.88 40.0645C106.736 40.3311 106.536 40.5337 106.279 40.6721C106.027 40.8105 105.741 40.8797 105.423 40.8797C105.037 40.8797 104.69 40.79 104.382 40.6106C104.073 40.4311 103.829 40.185 103.649 39.8722C103.474 39.5595 103.387 39.2083 103.387 38.8186C103.387 38.4238 103.474 38.0726 103.649 37.7649C103.829 37.4573 104.071 37.2137 104.374 37.0343C104.677 36.8548 105.024 36.7651 105.415 36.7651C105.734 36.7651 106.017 36.8343 106.263 36.9728C106.515 37.1061 106.721 37.3009 106.88 37.5573L106.765 37.7726V36.8574H107.59V40.8259C107.59 41.1848 107.502 41.5053 107.327 41.7873C107.158 42.0744 106.921 42.3 106.618 42.4641C106.315 42.6281 105.965 42.7102 105.569 42.7102ZM105.523 40.0722C105.754 40.0722 105.96 40.0184 106.14 39.9107C106.32 39.7979 106.461 39.6492 106.564 39.4646C106.672 39.2749 106.726 39.0621 106.726 38.8263C106.726 38.5904 106.672 38.3776 106.564 38.1879C106.456 37.9982 106.312 37.8495 106.132 37.7419C105.952 37.6291 105.749 37.5727 105.523 37.5727C105.286 37.5727 105.076 37.6291 104.891 37.7419C104.706 37.8495 104.559 37.9982 104.451 38.1879C104.348 38.3725 104.297 38.5853 104.297 38.8263C104.297 39.057 104.348 39.2672 104.451 39.4569C104.559 39.6466 104.706 39.7979 104.891 39.9107C105.076 40.0184 105.286 40.0722 105.523 40.0722Z" fill="black"/>
<path d="M114.207 41.0182V35.2885H115.117V38.3956L114.878 38.3033L117.476 35.2885H118.61L116.312 37.9726L116.358 37.3265L118.702 41.0182H117.631L115.949 38.3956L115.117 39.3646V41.0182H114.207Z" fill="black"/>
<path d="M123.186 41.1105C122.769 41.1105 122.399 41.0156 122.075 40.8259C121.756 40.6311 121.507 40.3696 121.327 40.0414C121.147 39.7082 121.057 39.3364 121.057 38.9263C121.057 38.5058 121.147 38.1341 121.327 37.8111C121.512 37.4881 121.759 37.2343 122.068 37.0497C122.376 36.86 122.726 36.7651 123.116 36.7651C123.43 36.7651 123.71 36.8189 123.957 36.9266C124.204 37.0343 124.412 37.183 124.581 37.3727C124.751 37.5573 124.88 37.7701 124.967 38.011C125.06 38.252 125.106 38.5084 125.106 38.7801C125.106 38.8468 125.103 38.916 125.098 38.9878C125.093 39.0596 125.083 39.1262 125.067 39.1877H121.744V38.4956H124.574L124.157 38.8109C124.209 38.5597 124.191 38.3366 124.103 38.1418C124.021 37.9418 123.893 37.7854 123.718 37.6726C123.548 37.5547 123.348 37.4957 123.116 37.4957C122.885 37.4957 122.679 37.5547 122.499 37.6726C122.319 37.7854 122.181 37.9495 122.083 38.1649C121.985 38.3751 121.947 38.6314 121.967 38.9339C121.942 39.2159 121.98 39.4621 122.083 39.6723C122.191 39.8825 122.34 40.0466 122.53 40.1645C122.726 40.2824 122.947 40.3414 123.193 40.3414C123.445 40.3414 123.659 40.285 123.833 40.1722C124.013 40.0594 124.155 39.9133 124.258 39.7338L124.967 40.0799C124.885 40.2747 124.756 40.4516 124.581 40.6106C124.412 40.7644 124.206 40.8874 123.965 40.9797C123.728 41.0669 123.468 41.1105 123.186 41.1105Z" fill="black"/>
<path d="M129.581 41.1105C129.154 41.1105 128.779 41.0054 128.455 40.7951C128.136 40.5849 127.912 40.3029 127.784 39.9491L128.455 39.6338C128.568 39.8697 128.722 40.0568 128.917 40.1953C129.118 40.3337 129.339 40.4029 129.581 40.4029C129.786 40.4029 129.953 40.3568 130.082 40.2645C130.21 40.1722 130.275 40.0466 130.275 39.8876C130.275 39.7851 130.246 39.703 130.19 39.6415C130.133 39.5749 130.061 39.521 129.974 39.48C129.892 39.439 129.807 39.4082 129.719 39.3877L129.064 39.2031C128.704 39.1006 128.434 38.9468 128.254 38.7417C128.079 38.5315 127.992 38.2879 127.992 38.011C127.992 37.7598 128.056 37.5419 128.185 37.3573C128.313 37.1676 128.491 37.0215 128.717 36.9189C128.943 36.8164 129.198 36.7651 129.48 36.7651C129.861 36.7651 130.2 36.86 130.498 37.0497C130.796 37.2343 131.007 37.4932 131.131 37.8265L130.46 38.1418C130.378 37.9418 130.246 37.7829 130.066 37.6649C129.892 37.547 129.694 37.4881 129.473 37.4881C129.282 37.4881 129.131 37.5342 129.018 37.6265C128.905 37.7137 128.848 37.829 128.848 37.9726C128.848 38.07 128.874 38.152 128.925 38.2187C128.977 38.2802 129.043 38.3315 129.126 38.3725C129.208 38.4084 129.293 38.4392 129.38 38.4648L130.059 38.6648C130.403 38.7622 130.668 38.916 130.853 39.1262C131.038 39.3313 131.131 39.5774 131.131 39.8645C131.131 40.1107 131.064 40.3286 130.93 40.5183C130.802 40.7029 130.622 40.849 130.39 40.9567C130.159 41.0592 129.889 41.1105 129.581 41.1105Z" fill="black"/>
<path d="M136.025 41.1105C135.609 41.1105 135.239 41.0156 134.915 40.8259C134.596 40.6311 134.347 40.3696 134.167 40.0414C133.987 39.7082 133.897 39.3364 133.897 38.9263C133.897 38.5058 133.987 38.1341 134.167 37.8111C134.352 37.4881 134.599 37.2343 134.907 37.0497C135.216 36.86 135.565 36.7651 135.956 36.7651C136.269 36.7651 136.55 36.8189 136.796 36.9266C137.043 37.0343 137.251 37.183 137.421 37.3727C137.591 37.5573 137.719 37.7701 137.807 38.011C137.899 38.252 137.945 38.5084 137.945 38.7801C137.945 38.8468 137.943 38.916 137.938 38.9878C137.933 39.0596 137.922 39.1262 137.907 39.1877H134.583V38.4956H137.413L136.997 38.8109C137.048 38.5597 137.03 38.3366 136.943 38.1418C136.861 37.9418 136.732 37.7854 136.557 37.6726C136.388 37.5547 136.187 37.4957 135.956 37.4957C135.725 37.4957 135.519 37.5547 135.339 37.6726C135.159 37.7854 135.02 37.9495 134.923 38.1649C134.825 38.3751 134.786 38.6314 134.807 38.9339C134.781 39.2159 134.82 39.4621 134.923 39.6723C135.03 39.8825 135.18 40.0466 135.37 40.1645C135.565 40.2824 135.786 40.3414 136.033 40.3414C136.285 40.3414 136.498 40.285 136.673 40.1722C136.853 40.0594 136.994 39.9133 137.097 39.7338L137.807 40.0799C137.724 40.2747 137.596 40.4516 137.421 40.6106C137.251 40.7644 137.046 40.8874 136.804 40.9797C136.568 41.0669 136.308 41.1105 136.025 41.1105Z" fill="black"/>
<path d="M140.878 41.0182V35.1962H141.749V37.6726L141.611 37.565C141.713 37.3035 141.878 37.1061 142.104 36.9728C142.33 36.8343 142.592 36.7651 142.891 36.7651C143.199 36.7651 143.472 36.8318 143.708 36.9651C143.945 37.0984 144.13 37.283 144.263 37.5188C144.397 37.7547 144.464 38.0239 144.464 38.3264V41.0182H143.6V38.5648C143.6 38.3546 143.559 38.1777 143.477 38.0341C143.4 37.8854 143.292 37.7726 143.153 37.6957C143.014 37.6137 142.855 37.5727 142.675 37.5727C142.5 37.5727 142.341 37.6137 142.197 37.6957C142.058 37.7726 141.947 37.8854 141.865 38.0341C141.788 38.1828 141.749 38.3597 141.749 38.5648V41.0182H140.878Z" fill="black"/>
<path d="M148.728 41.1105C148.445 41.1105 148.196 41.0618 147.98 40.9643C147.769 40.8618 147.604 40.7234 147.486 40.549C147.368 40.3696 147.309 40.1594 147.309 39.9184C147.309 39.6928 147.358 39.4903 147.455 39.3108C147.558 39.1313 147.715 38.9801 147.926 38.857C148.137 38.734 148.401 38.6468 148.72 38.5955L150.17 38.3571V39.0416L148.89 39.2647C148.658 39.3057 148.489 39.38 148.381 39.4877C148.273 39.5902 148.219 39.7235 148.219 39.8876C148.219 40.0466 148.278 40.1773 148.396 40.2799C148.52 40.3773 148.676 40.426 148.867 40.426C149.103 40.426 149.309 40.3747 149.483 40.2722C149.663 40.1696 149.802 40.0337 149.9 39.8645C149.998 39.6902 150.046 39.4979 150.046 39.2877V38.2187C150.046 38.0136 149.969 37.847 149.815 37.7188C149.666 37.5855 149.465 37.5188 149.214 37.5188C148.982 37.5188 148.779 37.5803 148.604 37.7034C148.435 37.8213 148.309 37.9751 148.226 38.1649L147.502 37.8034C147.579 37.5983 147.705 37.4188 147.879 37.265C148.054 37.1061 148.257 36.983 148.489 36.8959C148.725 36.8087 148.975 36.7651 149.237 36.7651C149.566 36.7651 149.856 36.8266 150.108 36.9497C150.365 37.0727 150.563 37.2445 150.702 37.465C150.846 37.6803 150.918 37.9316 150.918 38.2187V41.0182H150.085V40.2645L150.262 40.2875C150.165 40.4567 150.039 40.6029 149.884 40.7259C149.735 40.849 149.563 40.9438 149.368 41.0105C149.178 41.0771 148.964 41.1105 148.728 41.1105Z" fill="black"/>
<path d="M155.748 41.0643C155.311 41.0643 154.972 40.9413 154.73 40.6952C154.488 40.4491 154.368 40.103 154.368 39.6569V37.6419H153.635V36.8574H153.751C153.946 36.8574 154.098 36.801 154.206 36.6882C154.314 36.5754 154.368 36.4216 154.368 36.2267V35.9037H155.239V36.8574H156.187V37.6419H155.239V39.6184C155.239 39.762 155.262 39.8851 155.308 39.9876C155.355 40.085 155.429 40.1619 155.532 40.2183C155.635 40.2696 155.769 40.2952 155.933 40.2952C155.974 40.2952 156.02 40.2927 156.072 40.2875C156.123 40.2824 156.172 40.2773 156.218 40.2722V41.0182C156.146 41.0284 156.067 41.0387 155.979 41.0489C155.892 41.0592 155.815 41.0643 155.748 41.0643Z" fill="black"/>
<path d="M160.362 41.1105C160.08 41.1105 159.83 41.0618 159.614 40.9643C159.404 40.8618 159.239 40.7234 159.121 40.549C159.003 40.3696 158.943 40.1594 158.943 39.9184C158.943 39.6928 158.992 39.4903 159.09 39.3108C159.193 39.1313 159.35 38.9801 159.56 38.857C159.771 38.734 160.036 38.6468 160.355 38.5955L161.804 38.3571V39.0416L160.524 39.2647C160.293 39.3057 160.123 39.38 160.015 39.4877C159.907 39.5902 159.853 39.7235 159.853 39.8876C159.853 40.0466 159.913 40.1773 160.031 40.2799C160.154 40.3773 160.311 40.426 160.501 40.426C160.738 40.426 160.943 40.3747 161.118 40.2722C161.298 40.1696 161.437 40.0337 161.535 39.8645C161.632 39.6902 161.681 39.4979 161.681 39.2877V38.2187C161.681 38.0136 161.604 37.847 161.45 37.7188C161.301 37.5855 161.1 37.5188 160.848 37.5188C160.617 37.5188 160.414 37.5803 160.239 37.7034C160.069 37.8213 159.943 37.9751 159.861 38.1649L159.136 37.8034C159.213 37.5983 159.339 37.4188 159.514 37.265C159.689 37.1061 159.892 36.983 160.123 36.8959C160.36 36.8087 160.609 36.7651 160.871 36.7651C161.2 36.7651 161.491 36.8266 161.743 36.9497C162 37.0727 162.198 37.2445 162.337 37.465C162.48 37.6803 162.552 37.9316 162.552 38.2187V41.0182H161.72V40.2645L161.897 40.2875C161.799 40.4567 161.673 40.6029 161.519 40.7259C161.37 40.849 161.198 40.9438 161.002 41.0105C160.812 41.0771 160.599 41.1105 160.362 41.1105Z" fill="black"/>
<path d="M165.653 41.0182V36.8574H166.486V37.6726L166.386 37.565C166.489 37.3035 166.653 37.1061 166.88 36.9728C167.106 36.8343 167.368 36.7651 167.666 36.7651C167.975 36.7651 168.247 36.8318 168.484 36.9651C168.72 37.0984 168.905 37.283 169.039 37.5188C169.172 37.7547 169.239 38.0264 169.239 38.3341V41.0182H168.376V38.5648C168.376 38.3546 168.337 38.1777 168.26 38.0341C168.183 37.8854 168.072 37.7726 167.928 37.6957C167.79 37.6137 167.63 37.5727 167.45 37.5727C167.27 37.5727 167.108 37.6137 166.964 37.6957C166.826 37.7726 166.718 37.8854 166.641 38.0341C166.563 38.1828 166.525 38.3597 166.525 38.5648V41.0182H165.653Z" fill="black"/>
<path d="M175.769 41.0182V35.2885H176.617L178.776 38.2725H178.352L180.473 35.2885H181.321V41.0182H180.419V36.3575L180.758 36.4498L178.591 39.4031H178.499L176.378 36.4498L176.679 36.3575V41.0182H175.769Z" fill="black"/>
<path d="M186.465 41.1105C186.048 41.1105 185.678 41.0156 185.354 40.8259C185.036 40.6311 184.786 40.3696 184.606 40.0414C184.426 39.7082 184.337 39.3364 184.337 38.9263C184.337 38.5058 184.426 38.1341 184.606 37.8111C184.791 37.4881 185.038 37.2343 185.347 37.0497C185.655 36.86 186.005 36.7651 186.395 36.7651C186.709 36.7651 186.989 36.8189 187.236 36.9266C187.483 37.0343 187.691 37.183 187.861 37.3727C188.03 37.5573 188.159 37.7701 188.246 38.011C188.339 38.252 188.385 38.5084 188.385 38.7801C188.385 38.8468 188.382 38.916 188.377 38.9878C188.372 39.0596 188.362 39.1262 188.346 39.1877H185.023V38.4956H187.853L187.437 38.8109C187.488 38.5597 187.47 38.3366 187.383 38.1418C187.3 37.9418 187.172 37.7854 186.997 37.6726C186.827 37.5547 186.627 37.4957 186.395 37.4957C186.164 37.4957 185.958 37.5547 185.779 37.6726C185.599 37.7854 185.46 37.9495 185.362 38.1649C185.264 38.3751 185.226 38.6314 185.246 38.9339C185.221 39.2159 185.259 39.4621 185.362 39.6723C185.47 39.8825 185.619 40.0466 185.809 40.1645C186.005 40.2824 186.226 40.3414 186.473 40.3414C186.724 40.3414 186.938 40.285 187.113 40.1722C187.293 40.0594 187.434 39.9133 187.537 39.7338L188.246 40.0799C188.164 40.2747 188.035 40.4516 187.861 40.6106C187.691 40.7644 187.485 40.8874 187.244 40.9797C187.007 41.0669 186.748 41.1105 186.465 41.1105Z" fill="black"/>
<path d="M191.318 41.0182V36.8574H192.15V37.6726L192.05 37.565C192.153 37.3035 192.317 37.1061 192.544 36.9728C192.77 36.8343 193.032 36.7651 193.33 36.7651C193.639 36.7651 193.911 36.8318 194.148 36.9651C194.384 37.0984 194.569 37.283 194.703 37.5188C194.837 37.7547 194.903 38.0264 194.903 38.3341V41.0182H194.04V38.5648C194.04 38.3546 194.001 38.1777 193.924 38.0341C193.847 37.8854 193.736 37.7726 193.592 37.6957C193.454 37.6137 193.294 37.5727 193.114 37.5727C192.934 37.5727 192.772 37.6137 192.628 37.6957C192.49 37.7726 192.382 37.8854 192.305 38.0341C192.228 38.1828 192.189 38.3597 192.189 38.5648V41.0182H191.318Z" fill="black"/>
<path d="M199.723 41.0643C199.286 41.0643 198.946 40.9413 198.705 40.6952C198.463 40.4491 198.342 40.103 198.342 39.6569V37.6419H197.61V36.8574H197.725C197.921 36.8574 198.072 36.801 198.18 36.6882C198.288 36.5754 198.342 36.4216 198.342 36.2267V35.9037H199.214V36.8574H200.162V37.6419H199.214V39.6184C199.214 39.762 199.237 39.8851 199.283 39.9876C199.329 40.085 199.404 40.1619 199.507 40.2183C199.609 40.2696 199.743 40.2952 199.908 40.2952C199.949 40.2952 199.995 40.2927 200.046 40.2875C200.098 40.2824 200.147 40.2773 200.193 40.2722V41.0182C200.121 41.0284 200.041 41.0387 199.954 41.0489C199.867 41.0592 199.789 41.0643 199.723 41.0643Z" fill="black"/>
<path d="M204.337 41.1105C204.054 41.1105 203.805 41.0618 203.589 40.9643C203.378 40.8618 203.214 40.7234 203.095 40.549C202.977 40.3696 202.918 40.1594 202.918 39.9184C202.918 39.6928 202.967 39.4903 203.065 39.3108C203.167 39.1313 203.324 38.9801 203.535 38.857C203.746 38.734 204.011 38.6468 204.329 38.5955L205.779 38.3571V39.0416L204.499 39.2647C204.268 39.3057 204.098 39.38 203.99 39.4877C203.882 39.5902 203.828 39.7235 203.828 39.8876C203.828 40.0466 203.887 40.1773 204.005 40.2799C204.129 40.3773 204.286 40.426 204.476 40.426C204.712 40.426 204.918 40.3747 205.093 40.2722C205.273 40.1696 205.411 40.0337 205.509 39.8645C205.607 39.6902 205.656 39.4979 205.656 39.2877V38.2187C205.656 38.0136 205.579 37.847 205.424 37.7188C205.275 37.5855 205.075 37.5188 204.823 37.5188C204.592 37.5188 204.388 37.5803 204.214 37.7034C204.044 37.8213 203.918 37.9751 203.836 38.1649L203.111 37.8034C203.188 37.5983 203.314 37.4188 203.489 37.265C203.664 37.1061 203.867 36.983 204.098 36.8959C204.334 36.8087 204.584 36.7651 204.846 36.7651C205.175 36.7651 205.465 36.8266 205.717 36.9497C205.974 37.0727 206.172 37.2445 206.311 37.465C206.455 37.6803 206.527 37.9316 206.527 38.2187V41.0182H205.694V40.2645L205.872 40.2875C205.774 40.4567 205.648 40.6029 205.494 40.7259C205.345 40.849 205.172 40.9438 204.977 41.0105C204.787 41.0771 204.574 41.1105 204.337 41.1105Z" fill="black"/>
<path d="M209.628 41.0182V35.1962H210.499V41.0182H209.628Z" fill="black"/>
</svg>
